PathFileType	4	(X/Y/Z)	D:\TRACE\spotREDO_2-26-24\spot_Both_Motion_3_4-platform.trc
DataRate	CameraRate	NumFrames	NumMarkers	Units	OrigDataRate	OrigDataStartFrame	OrigNumFrames
100.00	100.00	      60	5	mm	100.00	2626	      7000
Frame#	Time	Left_Front			Right_Front			Left_Aft			Right_Aft			Post			
		X1	Y1	Z1	X2	Y2	Z2	X3	Y3	Z3	X4	Y4	Z4	X5	Y5	Z5	

2626	26.250	-698.89966	62.66229	-554.58929	715.93097	62.33969	-470.38876	-769.91974	-66.66624	657.18787	799.67633	-59.66531	662.11462	-5.19883	730.48431	-888.04810	
2627	26.260	-699.02789	63.12916	-554.39020	715.66632	62.84981	-470.27411	-769.95422	-66.91718	657.20215	799.68964	-60.18624	662.24512	-4.96272	730.97876	-887.56860	
2628	26.270	-699.11835	63.33458	-554.23151	715.59882	62.92563	-470.00632	-770.09216	-67.34487	657.22760	799.43207	-60.78531	662.42322	-5.32156	731.79590	-887.01178	
2629	26.280	-699.24445	63.54123	-554.14532	715.35632	63.09676	-469.88898	-770.26532	-67.81854	657.38269	799.21613	-61.03437	662.51300	-5.64043	732.24933	-886.50806	
2630	26.290	-699.46356	63.80356	-554.14502	715.27777	63.36143	-469.91586	-770.47327	-68.29509	657.27502	799.15979	-61.38093	662.45734	-5.60194	732.58405	-886.10254	
2631	26.300	-699.56702	64.00591	-554.10370	714.87354	63.67908	-469.81686	-770.55902	-68.55711	657.38269	798.99188	-61.54023	662.55994	-5.68219	732.97400	-885.74274	
2632	26.310	-699.73364	64.36664	-554.01379	714.65271	63.78905	-469.64343	-770.59241	-68.83515	657.37714	798.79663	-61.80365	662.47760	-5.75608	733.46130	-885.58411	
2633	26.320	-699.83087	64.69302	-553.90155	714.53162	64.04447	-469.36237	-770.74756	-69.16762	657.36938	798.49512	-62.04511	662.50494	-5.90288	734.11444	-884.98883	
2634	26.330	-700.03662	65.01627	-553.83502	714.39075	64.25524	-469.22604	-770.98309	-69.45439	657.42944	798.54614	-62.22208	662.67773	-5.97847	734.44879	-884.53815	
2635	26.340	-700.07111	65.29139	-553.69116	714.38977	64.38067	-469.09338	-771.17529	-69.69530	657.43671	798.37213	-62.58582	662.82294	-6.42704	734.79718	-884.15814	
2636	26.350	-700.14624	65.52055	-553.66437	714.22198	64.51810	-469.02374	-771.23242	-69.93955	657.49805	798.16907	-63.03283	662.75934	-6.43856	735.09735	-883.82745	
2637	26.360	-700.18323	65.63899	-553.55524	714.10223	64.76826	-468.84683	-771.32385	-70.12701	657.56744	798.06110	-63.28817	662.71411	-6.37289	735.31689	-883.66272	
2638	26.370	-700.10229	65.78323	-553.70081	714.07056	64.85500	-468.93295	-771.40765	-70.30350	657.62140	797.97211	-63.47911	662.75671	-6.16080	735.72919	-883.65088	
2639	26.380	-700.40283	65.94830	-553.51678	713.98547	65.08355	-468.91824	-771.46014	-70.47170	657.62494	797.89935	-63.70836	662.69946	-5.98645	736.56274	-883.73486	
2640	26.390	-700.56714	66.14336	-553.42883	713.88708	65.35835	-468.80679	-771.46332	-70.63098	657.66150	797.74664	-63.87144	662.72522	-5.43549	737.13312	-883.81470	
2641	26.400	-700.77087	66.46309	-553.49475	713.87885	65.55791	-468.68945	-771.70752	-71.02793	657.61621	797.68890	-63.95953	662.81934	-2.16419	737.38538	-883.97351	
2642	26.410	-701.10095	66.69782	-553.33490	713.84222	65.80264	-468.58884	-771.83929	-71.27375	657.69769	797.63434	-64.14252	662.84009	-2.57184	737.79218	-883.89557	
2643	26.420	-701.03430	66.76379	-553.33252	713.81982	65.89191	-468.56531	-771.91351	-71.44118	657.70673	797.58325	-64.41930	662.89502	-4.18555	737.44800	-883.65082	
2644	26.430	-701.18268	66.91046	-553.32153	713.73938	66.04182	-468.49887	-772.05396	-71.57613	657.73865	797.51483	-64.58757	662.91821	-4.79131	737.62170	-883.01147	
2645	26.440	-701.33301	67.07081	-553.22278	713.66827	66.09432	-468.47388	-772.06769	-71.63009	657.81842	797.37476	-64.63182	663.02960	-6.27486	738.12244	-882.14063	
2646	26.450	-701.34125	67.16548	-553.14764	713.69623	66.24899	-468.36652	-772.15308	-71.71796	657.83807	797.43622	-64.71735	662.99463	-6.84730	738.14764	-881.55194	
2647	26.460	-701.42438	67.29384	-553.09491	713.61401	66.46928	-468.41998	-772.21106	-71.79688	657.81018	797.35828	-64.77453	663.07849	-7.24361	738.09790	-881.16235	
2648	26.470	-701.47272	67.38593	-553.00952	713.60687	66.49122	-468.41006	-772.26166	-71.83763	657.80725	797.31183	-64.90061	663.10352	-7.32062	738.03979	-880.97394	
2649	26.480	-701.49255	67.38027	-553.00598	713.39154	66.65739	-468.49670	-772.31171	-71.87706	657.82251	797.33990	-64.97983	663.20508	-7.55913	738.07739	-880.75458	
2650	26.490	-701.56458	67.41483	-553.00769	713.48846	66.52743	-468.36374	-772.33710	-71.90948	657.80908	797.28357	-65.00397	663.18835	-7.63933	738.10474	-880.69507	
2651	26.500	-701.56464	67.44799	-553.02167	713.39435	66.64101	-468.43484	-772.34906	-71.88889	657.83209	797.29138	-64.94209	663.18353	-7.63769	738.10803	-880.69781	
2652	26.510	-701.57745	67.44145	-553.01294	713.35626	66.69322	-468.39035	-772.37390	-71.87026	657.81836	797.24292	-64.95291	663.10425	-7.62667	738.11108	-880.81134	
2653	26.520	-701.62744	67.43009	-553.01160	713.32813	66.65329	-468.41357	-772.38531	-71.87477	657.87451	797.23218	-64.88013	663.15350	-7.48657	738.10474	-881.02118	
2654	26.530	-701.58142	67.41238	-553.01520	713.26630	66.64874	-468.41156	-772.40613	-71.88349	657.84314	797.18359	-64.90488	663.14056	-7.49414	738.12421	-881.16663	
2655	26.540	-701.62170	67.38811	-553.04266	713.24097	66.63156	-468.46082	-772.42590	-71.88659	657.86322	797.12744	-64.93827	663.14203	-7.52115	738.14624	-881.22406	
2656	26.550	-701.62268	67.34779	-553.05884	713.34155	66.55072	-468.43652	-772.44043	-71.84200	657.83923	797.14825	-64.87238	663.11932	-7.52176	738.13416	-881.29913	
2657	26.560	-701.64093	67.31979	-553.08734	713.29596	66.57578	-468.46732	-772.41559	-71.83389	657.80530	797.21436	-64.84724	663.14709	-7.43860	738.12225	-881.36932	
2658	26.570	-701.63428	67.31279	-553.05615	713.32806	66.53003	-468.50140	-772.39862	-71.80365	657.83276	797.16394	-64.78716	663.11206	-7.45091	738.10205	-881.40863	
2659	26.580	-701.68048	67.28905	-553.07251	713.29486	66.51517	-468.52856	-772.40057	-71.75874	657.81152	797.05688	-64.73259	663.05634	-7.49375	738.06281	-881.37122	
2660	26.590	-701.63098	67.19362	-553.12799	713.34247	66.38118	-468.53650	-772.42981	-71.75779	657.78662	797.11047	-64.69588	663.04962	-7.49858	737.98895	-881.34735	
2661	26.600	-701.69238	67.14307	-553.16473	713.34314	66.11369	-468.47144	-772.40662	-71.70107	657.82318	796.94928	-64.55115	662.99365	-7.49687	737.86920	-881.32233	
2662	26.610	-701.66205	67.04965	-553.22095	713.40082	66.01501	-468.48312	-772.38684	-71.64984	657.81506	796.99194	-64.45775	662.87103	-7.53246	737.62921	-881.38043	
2663	26.620	-701.63397	66.95521	-553.26959	713.29138	65.90602	-468.58701	-772.33179	-71.51012	657.81769	796.94110	-64.37573	662.89191	-7.47498	737.21094	-881.55310	
2664	26.630	-701.64410	66.82966	-553.29352	713.28650	65.71101	-468.67908	-772.43378	-71.44638	657.68842	796.87305	-64.30435	662.78271	-7.31138	736.97968	-881.63068	
2665	26.640	-701.60303	66.61906	-553.33844	713.19708	65.48083	-468.77567	-772.44348	-71.22878	657.59174	796.86316	-64.08195	662.72363	-7.48802	736.76331	-881.86542	
2666	26.650	-701.52875	66.38246	-553.31842	713.19098	65.33936	-468.82275	-772.48633	-70.97732	657.54822	796.84857	-63.95741	662.71973	-7.57645	736.45435	-882.32343	
2667	26.660	-701.48181	66.08787	-553.37134	713.15155	65.21152	-468.92114	-772.43732	-70.80072	657.51605	796.97717	-63.80217	662.74048	-7.86947	736.15540	-882.81708	
2668	26.670	-701.46887	65.94489	-553.40747	713.10071	65.04993	-468.81000	-772.38647	-70.53903	657.45264	797.02313	-63.68594	662.74219	-7.65259	736.01172	-883.25238	
2669	26.680	-701.52863	65.72847	-553.46100	713.13672	64.84917	-468.95605	-772.31396	-70.11723	657.44818	797.10956	-63.45602	662.71069	-7.50970	735.72235	-883.87732	
2670	26.690	-701.56024	65.45661	-553.53424	713.04486	64.60735	-469.12228	-772.39441	-69.83713	657.46960	797.05359	-63.26788	662.65234	-7.42438	735.37073	-884.38782	
2671	26.700	-701.59790	65.23619	-553.69196	713.07465	64.46448	-469.23660	-772.44171	-69.59636	657.43097	797.06494	-62.92227	662.66907	-7.46422	735.23883	-884.61395	
2672	26.710	-701.63837	65.01385	-553.78717	713.06403	64.36886	-469.30505	-772.43158	-69.41045	657.46777	797.06250	-62.73808	662.68079	-7.77545	734.98267	-884.94965	
2673	26.720	-701.66315	64.83324	-553.82745	713.05145	64.03198	-469.45880	-772.43909	-69.20795	657.45728	797.03534	-62.37477	662.63666	-7.77199	734.59753	-885.14819	
2674	26.730	-701.62012	64.69112	-553.92365	713.05615	63.96888	-469.54459	-772.43854	-69.10224	657.40332	797.06903	-61.89580	662.68994	-7.97945	734.23041	-885.29248	
2675	26.740	-701.68066	64.56059	-554.01050	713.09009	63.93132	-469.57617	-772.43671	-68.93056	657.37823	797.05005	-61.54723	662.54297	-7.73540	733.76898	-885.48773	
2676	26.750	-701.61572	64.39284	-554.09888	713.07123	63.78746	-469.70651	-772.50250	-68.69276	657.29950	796.91901	-61.30407	662.50464	-7.57220	733.41473	-885.63025	
2677	26.760	-701.51367	64.16563	-554.10760	713.12866	63.66437	-469.93314	-772.43164	-68.34528	657.27155	796.91296	-61.26524	662.43463	-7.50223	733.09259	-885.93555	
2678	26.770	-701.54047	63.91600	-554.15350	713.12775	63.48479	-470.04605	-772.42035	-67.86790	657.22272	796.90826	-61.18676	662.33563	-7.66220	732.93408	-886.10297	
2679	26.780	-701.38025	63.35374	-554.37500	713.14288	63.20474	-470.16385	-772.36151	-67.53355	657.14795	797.07953	-60.85379	662.33307	-7.56594	732.42523	-886.66400	
2680	26.790	-701.34064	63.03559	-554.55896	713.19733	62.89040	-470.27289	-772.26373	-67.31414	657.10242	797.24445	-60.71610	662.34326	-7.96064	731.97113	-887.20367	
2681	26.800	-701.35571	62.76514	-554.67017	713.42511	62.45064	-470.14328	-772.26160	-67.07140	657.09198	797.23700	-60.45245	662.27209	-7.42211	731.74127	-887.98193	
2682	26.810	-701.25977	62.40582	-554.87909	713.35248	62.19323	-470.23129	-772.30621	-66.79608	657.11163	797.07251	-59.98567	662.19153	-6.64520	730.59961	-888.76855	
2683	26.820	-701.23145	62.10596	-555.02325	713.23407	61.90471	-470.37805	-772.37054	-66.60509	657.00629	797.03485	-59.68354	662.10303	-6.02890	730.33936	-889.82568	
2684	26.830	-701.09058	61.82936	-555.20563	713.27985	61.72758	-470.42249	-772.39185	-66.24360	656.95605	797.04230	-59.08672	662.12653	-5.06159	729.97675	-890.71240	
2685	26.840	-701.07355	61.68459	-555.19244	713.31677	61.49994	-470.50775	-772.30914	-65.92297	656.87299	797.05646	-58.58803	662.23779	-3.89486	729.07300	-892.09308	
